G04 #@! TF.FileFunction,Copper,L1,Top,Signal*
%FSLAX46Y46*%
G04 Gerber Fmt 4.6, Leading zero omitted, Abs format (unit mm)*
G04 Created by KiCad (PCBNEW 4.0.7-e2-6376~58~ubuntu16.04.1) date Fri Nov  3 14:53:56 2017*
%MOMM*%
%LPD*%
G01*
G04 APERTURE LIST*
%ADD10C,0.100000*%
%ADD11O,2.032000X1.727200*%
%ADD12O,1.727200X2.032000*%
%ADD13C,1.600000*%
%ADD14O,1.600000X1.600000*%
%ADD15C,1.100000*%
%ADD16C,0.800000*%
%ADD17C,0.400000*%
%ADD18C,0.254000*%
G04 APERTURE END LIST*
D10*
D11*
X127000000Y-120472200D03*
X127000000Y-117932200D03*
X127000000Y-115392200D03*
X127000000Y-112852200D03*
X106680000Y-110312200D03*
X127000000Y-110312200D03*
X106680000Y-107772200D03*
X127000000Y-107772200D03*
X106680000Y-105232200D03*
X127000000Y-105232200D03*
X106680000Y-102692200D03*
X127000000Y-102692200D03*
X106680000Y-100152200D03*
X127000000Y-100152200D03*
X106680000Y-97612200D03*
X127000000Y-97612200D03*
X106680000Y-95072200D03*
X127000000Y-95072200D03*
X106680000Y-92532200D03*
X127000000Y-92532200D03*
X106680000Y-89992200D03*
X127000000Y-89992200D03*
X106680000Y-87452200D03*
X127000000Y-87452200D03*
X106680000Y-84912200D03*
X127000000Y-84912200D03*
X106680000Y-82372200D03*
X127000000Y-82372200D03*
D12*
X109220000Y-66040000D03*
X109220000Y-68580000D03*
X109220000Y-71120000D03*
X127000000Y-66040000D03*
X127000000Y-68580000D03*
X127000000Y-71120000D03*
D13*
X119735600Y-92760800D03*
D14*
X119735600Y-77520800D03*
D13*
X114604800Y-97739200D03*
D14*
X114604800Y-82499200D03*
D15*
X123291600Y-71120000D03*
X123291600Y-89204800D03*
D16*
X123291600Y-89204800D02*
X123291600Y-71120000D01*
D17*
X126847600Y-117932200D02*
X127000000Y-117932200D01*
X127330200Y-117932200D02*
X127177800Y-117932200D01*
D18*
G36*
X128830000Y-126290000D02*
X104850000Y-126290000D01*
X104850000Y-117932200D01*
X125316655Y-117932200D01*
X125430729Y-118505689D01*
X125755585Y-118991870D01*
X126070366Y-119202200D01*
X125755585Y-119412530D01*
X125430729Y-119898711D01*
X125316655Y-120472200D01*
X125430729Y-121045689D01*
X125755585Y-121531870D01*
X126241766Y-121856726D01*
X126815255Y-121970800D01*
X127184745Y-121970800D01*
X127758234Y-121856726D01*
X128244415Y-121531870D01*
X128569271Y-121045689D01*
X128683345Y-120472200D01*
X128569271Y-119898711D01*
X128244415Y-119412530D01*
X127929634Y-119202200D01*
X128244415Y-118991870D01*
X128569271Y-118505689D01*
X128683345Y-117932200D01*
X128569271Y-117358711D01*
X128244415Y-116872530D01*
X127934931Y-116665739D01*
X128350732Y-116294236D01*
X128604709Y-115766991D01*
X128607358Y-115751226D01*
X128486217Y-115519200D01*
X127127000Y-115519200D01*
X127127000Y-115539200D01*
X126873000Y-115539200D01*
X126873000Y-115519200D01*
X125513783Y-115519200D01*
X125392642Y-115751226D01*
X125395291Y-115766991D01*
X125649268Y-116294236D01*
X126065069Y-116665739D01*
X125755585Y-116872530D01*
X125430729Y-117358711D01*
X125316655Y-117932200D01*
X104850000Y-117932200D01*
X104850000Y-82372200D01*
X104996655Y-82372200D01*
X105110729Y-82945689D01*
X105435585Y-83431870D01*
X105750366Y-83642200D01*
X105435585Y-83852530D01*
X105110729Y-84338711D01*
X104996655Y-84912200D01*
X105110729Y-85485689D01*
X105435585Y-85971870D01*
X105750366Y-86182200D01*
X105435585Y-86392530D01*
X105110729Y-86878711D01*
X104996655Y-87452200D01*
X105110729Y-88025689D01*
X105435585Y-88511870D01*
X105750366Y-88722200D01*
X105435585Y-88932530D01*
X105110729Y-89418711D01*
X104996655Y-89992200D01*
X105110729Y-90565689D01*
X105435585Y-91051870D01*
X105750366Y-91262200D01*
X105435585Y-91472530D01*
X105110729Y-91958711D01*
X104996655Y-92532200D01*
X105110729Y-93105689D01*
X105435585Y-93591870D01*
X105750366Y-93802200D01*
X105435585Y-94012530D01*
X105110729Y-94498711D01*
X104996655Y-95072200D01*
X105110729Y-95645689D01*
X105435585Y-96131870D01*
X105750366Y-96342200D01*
X105435585Y-96552530D01*
X105110729Y-97038711D01*
X104996655Y-97612200D01*
X105110729Y-98185689D01*
X105435585Y-98671870D01*
X105750366Y-98882200D01*
X105435585Y-99092530D01*
X105110729Y-99578711D01*
X104996655Y-100152200D01*
X105110729Y-100725689D01*
X105435585Y-101211870D01*
X105750366Y-101422200D01*
X105435585Y-101632530D01*
X105110729Y-102118711D01*
X104996655Y-102692200D01*
X105110729Y-103265689D01*
X105435585Y-103751870D01*
X105750366Y-103962200D01*
X105435585Y-104172530D01*
X105110729Y-104658711D01*
X104996655Y-105232200D01*
X105110729Y-105805689D01*
X105435585Y-106291870D01*
X105750366Y-106502200D01*
X105435585Y-106712530D01*
X105110729Y-107198711D01*
X104996655Y-107772200D01*
X105110729Y-108345689D01*
X105435585Y-108831870D01*
X105750366Y-109042200D01*
X105435585Y-109252530D01*
X105110729Y-109738711D01*
X104996655Y-110312200D01*
X105110729Y-110885689D01*
X105435585Y-111371870D01*
X105921766Y-111696726D01*
X106495255Y-111810800D01*
X106864745Y-111810800D01*
X107438234Y-111696726D01*
X107924415Y-111371870D01*
X108249271Y-110885689D01*
X108363345Y-110312200D01*
X108249271Y-109738711D01*
X107924415Y-109252530D01*
X107609634Y-109042200D01*
X107924415Y-108831870D01*
X108249271Y-108345689D01*
X108363345Y-107772200D01*
X108249271Y-107198711D01*
X107924415Y-106712530D01*
X107609634Y-106502200D01*
X107924415Y-106291870D01*
X108249271Y-105805689D01*
X108363345Y-105232200D01*
X108249271Y-104658711D01*
X107924415Y-104172530D01*
X107609634Y-103962200D01*
X107924415Y-103751870D01*
X108249271Y-103265689D01*
X108363345Y-102692200D01*
X108249271Y-102118711D01*
X107924415Y-101632530D01*
X107609634Y-101422200D01*
X107924415Y-101211870D01*
X108249271Y-100725689D01*
X108363345Y-100152200D01*
X108249271Y-99578711D01*
X107924415Y-99092530D01*
X107609634Y-98882200D01*
X107924415Y-98671870D01*
X108249271Y-98185689D01*
X108281554Y-98023387D01*
X113169552Y-98023387D01*
X113387557Y-98551000D01*
X113790877Y-98955024D01*
X114318109Y-99173950D01*
X114888987Y-99174448D01*
X115416600Y-98956443D01*
X115820624Y-98553123D01*
X116039550Y-98025891D01*
X116040048Y-97455013D01*
X115822043Y-96927400D01*
X115418723Y-96523376D01*
X114891491Y-96304450D01*
X114320613Y-96303952D01*
X113793000Y-96521957D01*
X113388976Y-96925277D01*
X113170050Y-97452509D01*
X113169552Y-98023387D01*
X108281554Y-98023387D01*
X108363345Y-97612200D01*
X108249271Y-97038711D01*
X107924415Y-96552530D01*
X107609634Y-96342200D01*
X107924415Y-96131870D01*
X108249271Y-95645689D01*
X108363345Y-95072200D01*
X108249271Y-94498711D01*
X107924415Y-94012530D01*
X107609634Y-93802200D01*
X107924415Y-93591870D01*
X108249271Y-93105689D01*
X108261345Y-93044987D01*
X118300352Y-93044987D01*
X118518357Y-93572600D01*
X118921677Y-93976624D01*
X119448909Y-94195550D01*
X120019787Y-94196048D01*
X120547400Y-93978043D01*
X120951424Y-93574723D01*
X121170350Y-93047491D01*
X121170848Y-92476613D01*
X120952843Y-91949000D01*
X120549523Y-91544976D01*
X120022291Y-91326050D01*
X119451413Y-91325552D01*
X118923800Y-91543557D01*
X118519776Y-91946877D01*
X118300850Y-92474109D01*
X118300352Y-93044987D01*
X108261345Y-93044987D01*
X108363345Y-92532200D01*
X108249271Y-91958711D01*
X107924415Y-91472530D01*
X107609634Y-91262200D01*
X107924415Y-91051870D01*
X108249271Y-90565689D01*
X108363345Y-89992200D01*
X108249271Y-89418711D01*
X107924415Y-88932530D01*
X107609634Y-88722200D01*
X107924415Y-88511870D01*
X108249271Y-88025689D01*
X108363345Y-87452200D01*
X108249271Y-86878711D01*
X107924415Y-86392530D01*
X107609634Y-86182200D01*
X107924415Y-85971870D01*
X108249271Y-85485689D01*
X108363345Y-84912200D01*
X108249271Y-84338711D01*
X107924415Y-83852530D01*
X107609634Y-83642200D01*
X107924415Y-83431870D01*
X108249271Y-82945689D01*
X108343675Y-82471087D01*
X113169800Y-82471087D01*
X113169800Y-82527313D01*
X113279033Y-83076464D01*
X113590102Y-83542011D01*
X114055649Y-83853080D01*
X114604800Y-83962313D01*
X115153951Y-83853080D01*
X115619498Y-83542011D01*
X115930567Y-83076464D01*
X116039800Y-82527313D01*
X116039800Y-82471087D01*
X115930567Y-81921936D01*
X115619498Y-81456389D01*
X115153951Y-81145320D01*
X114604800Y-81036087D01*
X114055649Y-81145320D01*
X113590102Y-81456389D01*
X113279033Y-81921936D01*
X113169800Y-82471087D01*
X108343675Y-82471087D01*
X108363345Y-82372200D01*
X108249271Y-81798711D01*
X107924415Y-81312530D01*
X107438234Y-80987674D01*
X106864745Y-80873600D01*
X106495255Y-80873600D01*
X105921766Y-80987674D01*
X105435585Y-81312530D01*
X105110729Y-81798711D01*
X104996655Y-82372200D01*
X104850000Y-82372200D01*
X104850000Y-77492687D01*
X118300600Y-77492687D01*
X118300600Y-77548913D01*
X118409833Y-78098064D01*
X118720902Y-78563611D01*
X119186449Y-78874680D01*
X119735600Y-78983913D01*
X120284751Y-78874680D01*
X120750298Y-78563611D01*
X121061367Y-78098064D01*
X121170600Y-77548913D01*
X121170600Y-77492687D01*
X121061367Y-76943536D01*
X120750298Y-76477989D01*
X120284751Y-76166920D01*
X119735600Y-76057687D01*
X119186449Y-76166920D01*
X118720902Y-76477989D01*
X118409833Y-76943536D01*
X118300600Y-77492687D01*
X104850000Y-77492687D01*
X104850000Y-71481913D01*
X107734816Y-71481913D01*
X107928046Y-72034320D01*
X108317964Y-72470732D01*
X108845209Y-72724709D01*
X108860974Y-72727358D01*
X109093000Y-72606217D01*
X109093000Y-71247000D01*
X109347000Y-71247000D01*
X109347000Y-72606217D01*
X109579026Y-72727358D01*
X109594791Y-72724709D01*
X110122036Y-72470732D01*
X110511954Y-72034320D01*
X110705184Y-71481913D01*
X110627049Y-71354677D01*
X122106394Y-71354677D01*
X122256600Y-71718202D01*
X122256600Y-88607310D01*
X122106806Y-88968055D01*
X122106394Y-89439477D01*
X122286420Y-89875172D01*
X122619475Y-90208809D01*
X123054855Y-90389594D01*
X123526277Y-90390006D01*
X123961972Y-90209980D01*
X124295609Y-89876925D01*
X124476394Y-89441545D01*
X124476806Y-88970123D01*
X124326600Y-88606598D01*
X124326600Y-82372200D01*
X125316655Y-82372200D01*
X125430729Y-82945689D01*
X125755585Y-83431870D01*
X126070366Y-83642200D01*
X125755585Y-83852530D01*
X125430729Y-84338711D01*
X125316655Y-84912200D01*
X125430729Y-85485689D01*
X125755585Y-85971870D01*
X126070366Y-86182200D01*
X125755585Y-86392530D01*
X125430729Y-86878711D01*
X125316655Y-87452200D01*
X125430729Y-88025689D01*
X125755585Y-88511870D01*
X126070366Y-88722200D01*
X125755585Y-88932530D01*
X125430729Y-89418711D01*
X125316655Y-89992200D01*
X125430729Y-90565689D01*
X125755585Y-91051870D01*
X126070366Y-91262200D01*
X125755585Y-91472530D01*
X125430729Y-91958711D01*
X125316655Y-92532200D01*
X125430729Y-93105689D01*
X125755585Y-93591870D01*
X126070366Y-93802200D01*
X125755585Y-94012530D01*
X125430729Y-94498711D01*
X125316655Y-95072200D01*
X125430729Y-95645689D01*
X125755585Y-96131870D01*
X126070366Y-96342200D01*
X125755585Y-96552530D01*
X125430729Y-97038711D01*
X125316655Y-97612200D01*
X125430729Y-98185689D01*
X125755585Y-98671870D01*
X126070366Y-98882200D01*
X125755585Y-99092530D01*
X125430729Y-99578711D01*
X125316655Y-100152200D01*
X125430729Y-100725689D01*
X125755585Y-101211870D01*
X126070366Y-101422200D01*
X125755585Y-101632530D01*
X125430729Y-102118711D01*
X125316655Y-102692200D01*
X125430729Y-103265689D01*
X125755585Y-103751870D01*
X126070366Y-103962200D01*
X125755585Y-104172530D01*
X125430729Y-104658711D01*
X125316655Y-105232200D01*
X125430729Y-105805689D01*
X125755585Y-106291870D01*
X126070366Y-106502200D01*
X125755585Y-106712530D01*
X125430729Y-107198711D01*
X125316655Y-107772200D01*
X125430729Y-108345689D01*
X125755585Y-108831870D01*
X126070366Y-109042200D01*
X125755585Y-109252530D01*
X125430729Y-109738711D01*
X125316655Y-110312200D01*
X125430729Y-110885689D01*
X125755585Y-111371870D01*
X126070366Y-111582200D01*
X125755585Y-111792530D01*
X125430729Y-112278711D01*
X125316655Y-112852200D01*
X125430729Y-113425689D01*
X125755585Y-113911870D01*
X126065069Y-114118661D01*
X125649268Y-114490164D01*
X125395291Y-115017409D01*
X125392642Y-115033174D01*
X125513783Y-115265200D01*
X126873000Y-115265200D01*
X126873000Y-115245200D01*
X127127000Y-115245200D01*
X127127000Y-115265200D01*
X128486217Y-115265200D01*
X128607358Y-115033174D01*
X128604709Y-115017409D01*
X128350732Y-114490164D01*
X127934931Y-114118661D01*
X128244415Y-113911870D01*
X128569271Y-113425689D01*
X128683345Y-112852200D01*
X128569271Y-112278711D01*
X128244415Y-111792530D01*
X127929634Y-111582200D01*
X128244415Y-111371870D01*
X128569271Y-110885689D01*
X128683345Y-110312200D01*
X128569271Y-109738711D01*
X128244415Y-109252530D01*
X127929634Y-109042200D01*
X128244415Y-108831870D01*
X128569271Y-108345689D01*
X128683345Y-107772200D01*
X128569271Y-107198711D01*
X128244415Y-106712530D01*
X127929634Y-106502200D01*
X128244415Y-106291870D01*
X128569271Y-105805689D01*
X128683345Y-105232200D01*
X128569271Y-104658711D01*
X128244415Y-104172530D01*
X127929634Y-103962200D01*
X128244415Y-103751870D01*
X128569271Y-103265689D01*
X128683345Y-102692200D01*
X128569271Y-102118711D01*
X128244415Y-101632530D01*
X127929634Y-101422200D01*
X128244415Y-101211870D01*
X128569271Y-100725689D01*
X128683345Y-100152200D01*
X128569271Y-99578711D01*
X128244415Y-99092530D01*
X127929634Y-98882200D01*
X128244415Y-98671870D01*
X128569271Y-98185689D01*
X128683345Y-97612200D01*
X128569271Y-97038711D01*
X128244415Y-96552530D01*
X127929634Y-96342200D01*
X128244415Y-96131870D01*
X128569271Y-95645689D01*
X128683345Y-95072200D01*
X128569271Y-94498711D01*
X128244415Y-94012530D01*
X127929634Y-93802200D01*
X128244415Y-93591870D01*
X128569271Y-93105689D01*
X128683345Y-92532200D01*
X128569271Y-91958711D01*
X128244415Y-91472530D01*
X127929634Y-91262200D01*
X128244415Y-91051870D01*
X128569271Y-90565689D01*
X128683345Y-89992200D01*
X128569271Y-89418711D01*
X128244415Y-88932530D01*
X127929634Y-88722200D01*
X128244415Y-88511870D01*
X128569271Y-88025689D01*
X128683345Y-87452200D01*
X128569271Y-86878711D01*
X128244415Y-86392530D01*
X127929634Y-86182200D01*
X128244415Y-85971870D01*
X128569271Y-85485689D01*
X128683345Y-84912200D01*
X128569271Y-84338711D01*
X128244415Y-83852530D01*
X127929634Y-83642200D01*
X128244415Y-83431870D01*
X128569271Y-82945689D01*
X128683345Y-82372200D01*
X128569271Y-81798711D01*
X128244415Y-81312530D01*
X127758234Y-80987674D01*
X127184745Y-80873600D01*
X126815255Y-80873600D01*
X126241766Y-80987674D01*
X125755585Y-81312530D01*
X125430729Y-81798711D01*
X125316655Y-82372200D01*
X124326600Y-82372200D01*
X124326600Y-71717490D01*
X124476394Y-71356745D01*
X124476806Y-70885323D01*
X124296780Y-70449628D01*
X123963725Y-70115991D01*
X123528345Y-69935206D01*
X123056923Y-69934794D01*
X122621228Y-70114820D01*
X122287591Y-70447875D01*
X122106806Y-70883255D01*
X122106394Y-71354677D01*
X110627049Y-71354677D01*
X110560924Y-71247000D01*
X109347000Y-71247000D01*
X109093000Y-71247000D01*
X107879076Y-71247000D01*
X107734816Y-71481913D01*
X104850000Y-71481913D01*
X104850000Y-65855255D01*
X107721400Y-65855255D01*
X107721400Y-66224745D01*
X107835474Y-66798234D01*
X108160330Y-67284415D01*
X108198621Y-67310000D01*
X108160330Y-67335585D01*
X107835474Y-67821766D01*
X107721400Y-68395255D01*
X107721400Y-68764745D01*
X107835474Y-69338234D01*
X108160330Y-69824415D01*
X108228184Y-69869754D01*
X107928046Y-70205680D01*
X107734816Y-70758087D01*
X107879076Y-70993000D01*
X109093000Y-70993000D01*
X109093000Y-70973000D01*
X109347000Y-70973000D01*
X109347000Y-70993000D01*
X110560924Y-70993000D01*
X110705184Y-70758087D01*
X110511954Y-70205680D01*
X110211816Y-69869754D01*
X110279670Y-69824415D01*
X110604526Y-69338234D01*
X110718600Y-68764745D01*
X110718600Y-68395255D01*
X110604526Y-67821766D01*
X110279670Y-67335585D01*
X110241379Y-67310000D01*
X110279670Y-67284415D01*
X110604526Y-66798234D01*
X110718600Y-66224745D01*
X110718600Y-65855255D01*
X125501400Y-65855255D01*
X125501400Y-66224745D01*
X125615474Y-66798234D01*
X125940330Y-67284415D01*
X125978621Y-67310000D01*
X125940330Y-67335585D01*
X125615474Y-67821766D01*
X125501400Y-68395255D01*
X125501400Y-68764745D01*
X125615474Y-69338234D01*
X125940330Y-69824415D01*
X125978621Y-69850000D01*
X125940330Y-69875585D01*
X125615474Y-70361766D01*
X125501400Y-70935255D01*
X125501400Y-71304745D01*
X125615474Y-71878234D01*
X125940330Y-72364415D01*
X126426511Y-72689271D01*
X127000000Y-72803345D01*
X127573489Y-72689271D01*
X128059670Y-72364415D01*
X128384526Y-71878234D01*
X128498600Y-71304745D01*
X128498600Y-70935255D01*
X128384526Y-70361766D01*
X128059670Y-69875585D01*
X128021379Y-69850000D01*
X128059670Y-69824415D01*
X128384526Y-69338234D01*
X128498600Y-68764745D01*
X128498600Y-68395255D01*
X128384526Y-67821766D01*
X128059670Y-67335585D01*
X128021379Y-67310000D01*
X128059670Y-67284415D01*
X128384526Y-66798234D01*
X128498600Y-66224745D01*
X128498600Y-65855255D01*
X128384526Y-65281766D01*
X128059670Y-64795585D01*
X127573489Y-64470729D01*
X127000000Y-64356655D01*
X126426511Y-64470729D01*
X125940330Y-64795585D01*
X125615474Y-65281766D01*
X125501400Y-65855255D01*
X110718600Y-65855255D01*
X110604526Y-65281766D01*
X110279670Y-64795585D01*
X109793489Y-64470729D01*
X109220000Y-64356655D01*
X108646511Y-64470729D01*
X108160330Y-64795585D01*
X107835474Y-65281766D01*
X107721400Y-65855255D01*
X104850000Y-65855255D01*
X104850000Y-58368000D01*
X128830000Y-58368000D01*
X128830000Y-126290000D01*
X128830000Y-126290000D01*
G37*
X128830000Y-126290000D02*
X104850000Y-126290000D01*
X104850000Y-117932200D01*
X125316655Y-117932200D01*
X125430729Y-118505689D01*
X125755585Y-118991870D01*
X126070366Y-119202200D01*
X125755585Y-119412530D01*
X125430729Y-119898711D01*
X125316655Y-120472200D01*
X125430729Y-121045689D01*
X125755585Y-121531870D01*
X126241766Y-121856726D01*
X126815255Y-121970800D01*
X127184745Y-121970800D01*
X127758234Y-121856726D01*
X128244415Y-121531870D01*
X128569271Y-121045689D01*
X128683345Y-120472200D01*
X128569271Y-119898711D01*
X128244415Y-119412530D01*
X127929634Y-119202200D01*
X128244415Y-118991870D01*
X128569271Y-118505689D01*
X128683345Y-117932200D01*
X128569271Y-117358711D01*
X128244415Y-116872530D01*
X127934931Y-116665739D01*
X128350732Y-116294236D01*
X128604709Y-115766991D01*
X128607358Y-115751226D01*
X128486217Y-115519200D01*
X127127000Y-115519200D01*
X127127000Y-115539200D01*
X126873000Y-115539200D01*
X126873000Y-115519200D01*
X125513783Y-115519200D01*
X125392642Y-115751226D01*
X125395291Y-115766991D01*
X125649268Y-116294236D01*
X126065069Y-116665739D01*
X125755585Y-116872530D01*
X125430729Y-117358711D01*
X125316655Y-117932200D01*
X104850000Y-117932200D01*
X104850000Y-82372200D01*
X104996655Y-82372200D01*
X105110729Y-82945689D01*
X105435585Y-83431870D01*
X105750366Y-83642200D01*
X105435585Y-83852530D01*
X105110729Y-84338711D01*
X104996655Y-84912200D01*
X105110729Y-85485689D01*
X105435585Y-85971870D01*
X105750366Y-86182200D01*
X105435585Y-86392530D01*
X105110729Y-86878711D01*
X104996655Y-87452200D01*
X105110729Y-88025689D01*
X105435585Y-88511870D01*
X105750366Y-88722200D01*
X105435585Y-88932530D01*
X105110729Y-89418711D01*
X104996655Y-89992200D01*
X105110729Y-90565689D01*
X105435585Y-91051870D01*
X105750366Y-91262200D01*
X105435585Y-91472530D01*
X105110729Y-91958711D01*
X104996655Y-92532200D01*
X105110729Y-93105689D01*
X105435585Y-93591870D01*
X105750366Y-93802200D01*
X105435585Y-94012530D01*
X105110729Y-94498711D01*
X104996655Y-95072200D01*
X105110729Y-95645689D01*
X105435585Y-96131870D01*
X105750366Y-96342200D01*
X105435585Y-96552530D01*
X105110729Y-97038711D01*
X104996655Y-97612200D01*
X105110729Y-98185689D01*
X105435585Y-98671870D01*
X105750366Y-98882200D01*
X105435585Y-99092530D01*
X105110729Y-99578711D01*
X104996655Y-100152200D01*
X105110729Y-100725689D01*
X105435585Y-101211870D01*
X105750366Y-101422200D01*
X105435585Y-101632530D01*
X105110729Y-102118711D01*
X104996655Y-102692200D01*
X105110729Y-103265689D01*
X105435585Y-103751870D01*
X105750366Y-103962200D01*
X105435585Y-104172530D01*
X105110729Y-104658711D01*
X104996655Y-105232200D01*
X105110729Y-105805689D01*
X105435585Y-106291870D01*
X105750366Y-106502200D01*
X105435585Y-106712530D01*
X105110729Y-107198711D01*
X104996655Y-107772200D01*
X105110729Y-108345689D01*
X105435585Y-108831870D01*
X105750366Y-109042200D01*
X105435585Y-109252530D01*
X105110729Y-109738711D01*
X104996655Y-110312200D01*
X105110729Y-110885689D01*
X105435585Y-111371870D01*
X105921766Y-111696726D01*
X106495255Y-111810800D01*
X106864745Y-111810800D01*
X107438234Y-111696726D01*
X107924415Y-111371870D01*
X108249271Y-110885689D01*
X108363345Y-110312200D01*
X108249271Y-109738711D01*
X107924415Y-109252530D01*
X107609634Y-109042200D01*
X107924415Y-108831870D01*
X108249271Y-108345689D01*
X108363345Y-107772200D01*
X108249271Y-107198711D01*
X107924415Y-106712530D01*
X107609634Y-106502200D01*
X107924415Y-106291870D01*
X108249271Y-105805689D01*
X108363345Y-105232200D01*
X108249271Y-104658711D01*
X107924415Y-104172530D01*
X107609634Y-103962200D01*
X107924415Y-103751870D01*
X108249271Y-103265689D01*
X108363345Y-102692200D01*
X108249271Y-102118711D01*
X107924415Y-101632530D01*
X107609634Y-101422200D01*
X107924415Y-101211870D01*
X108249271Y-100725689D01*
X108363345Y-100152200D01*
X108249271Y-99578711D01*
X107924415Y-99092530D01*
X107609634Y-98882200D01*
X107924415Y-98671870D01*
X108249271Y-98185689D01*
X108281554Y-98023387D01*
X113169552Y-98023387D01*
X113387557Y-98551000D01*
X113790877Y-98955024D01*
X114318109Y-99173950D01*
X114888987Y-99174448D01*
X115416600Y-98956443D01*
X115820624Y-98553123D01*
X116039550Y-98025891D01*
X116040048Y-97455013D01*
X115822043Y-96927400D01*
X115418723Y-96523376D01*
X114891491Y-96304450D01*
X114320613Y-96303952D01*
X113793000Y-96521957D01*
X113388976Y-96925277D01*
X113170050Y-97452509D01*
X113169552Y-98023387D01*
X108281554Y-98023387D01*
X108363345Y-97612200D01*
X108249271Y-97038711D01*
X107924415Y-96552530D01*
X107609634Y-96342200D01*
X107924415Y-96131870D01*
X108249271Y-95645689D01*
X108363345Y-95072200D01*
X108249271Y-94498711D01*
X107924415Y-94012530D01*
X107609634Y-93802200D01*
X107924415Y-93591870D01*
X108249271Y-93105689D01*
X108261345Y-93044987D01*
X118300352Y-93044987D01*
X118518357Y-93572600D01*
X118921677Y-93976624D01*
X119448909Y-94195550D01*
X120019787Y-94196048D01*
X120547400Y-93978043D01*
X120951424Y-93574723D01*
X121170350Y-93047491D01*
X121170848Y-92476613D01*
X120952843Y-91949000D01*
X120549523Y-91544976D01*
X120022291Y-91326050D01*
X119451413Y-91325552D01*
X118923800Y-91543557D01*
X118519776Y-91946877D01*
X118300850Y-92474109D01*
X118300352Y-93044987D01*
X108261345Y-93044987D01*
X108363345Y-92532200D01*
X108249271Y-91958711D01*
X107924415Y-91472530D01*
X107609634Y-91262200D01*
X107924415Y-91051870D01*
X108249271Y-90565689D01*
X108363345Y-89992200D01*
X108249271Y-89418711D01*
X107924415Y-88932530D01*
X107609634Y-88722200D01*
X107924415Y-88511870D01*
X108249271Y-88025689D01*
X108363345Y-87452200D01*
X108249271Y-86878711D01*
X107924415Y-86392530D01*
X107609634Y-86182200D01*
X107924415Y-85971870D01*
X108249271Y-85485689D01*
X108363345Y-84912200D01*
X108249271Y-84338711D01*
X107924415Y-83852530D01*
X107609634Y-83642200D01*
X107924415Y-83431870D01*
X108249271Y-82945689D01*
X108343675Y-82471087D01*
X113169800Y-82471087D01*
X113169800Y-82527313D01*
X113279033Y-83076464D01*
X113590102Y-83542011D01*
X114055649Y-83853080D01*
X114604800Y-83962313D01*
X115153951Y-83853080D01*
X115619498Y-83542011D01*
X115930567Y-83076464D01*
X116039800Y-82527313D01*
X116039800Y-82471087D01*
X115930567Y-81921936D01*
X115619498Y-81456389D01*
X115153951Y-81145320D01*
X114604800Y-81036087D01*
X114055649Y-81145320D01*
X113590102Y-81456389D01*
X113279033Y-81921936D01*
X113169800Y-82471087D01*
X108343675Y-82471087D01*
X108363345Y-82372200D01*
X108249271Y-81798711D01*
X107924415Y-81312530D01*
X107438234Y-80987674D01*
X106864745Y-80873600D01*
X106495255Y-80873600D01*
X105921766Y-80987674D01*
X105435585Y-81312530D01*
X105110729Y-81798711D01*
X104996655Y-82372200D01*
X104850000Y-82372200D01*
X104850000Y-77492687D01*
X118300600Y-77492687D01*
X118300600Y-77548913D01*
X118409833Y-78098064D01*
X118720902Y-78563611D01*
X119186449Y-78874680D01*
X119735600Y-78983913D01*
X120284751Y-78874680D01*
X120750298Y-78563611D01*
X121061367Y-78098064D01*
X121170600Y-77548913D01*
X121170600Y-77492687D01*
X121061367Y-76943536D01*
X120750298Y-76477989D01*
X120284751Y-76166920D01*
X119735600Y-76057687D01*
X119186449Y-76166920D01*
X118720902Y-76477989D01*
X118409833Y-76943536D01*
X118300600Y-77492687D01*
X104850000Y-77492687D01*
X104850000Y-71481913D01*
X107734816Y-71481913D01*
X107928046Y-72034320D01*
X108317964Y-72470732D01*
X108845209Y-72724709D01*
X108860974Y-72727358D01*
X109093000Y-72606217D01*
X109093000Y-71247000D01*
X109347000Y-71247000D01*
X109347000Y-72606217D01*
X109579026Y-72727358D01*
X109594791Y-72724709D01*
X110122036Y-72470732D01*
X110511954Y-72034320D01*
X110705184Y-71481913D01*
X110627049Y-71354677D01*
X122106394Y-71354677D01*
X122256600Y-71718202D01*
X122256600Y-88607310D01*
X122106806Y-88968055D01*
X122106394Y-89439477D01*
X122286420Y-89875172D01*
X122619475Y-90208809D01*
X123054855Y-90389594D01*
X123526277Y-90390006D01*
X123961972Y-90209980D01*
X124295609Y-89876925D01*
X124476394Y-89441545D01*
X124476806Y-88970123D01*
X124326600Y-88606598D01*
X124326600Y-82372200D01*
X125316655Y-82372200D01*
X125430729Y-82945689D01*
X125755585Y-83431870D01*
X126070366Y-83642200D01*
X125755585Y-83852530D01*
X125430729Y-84338711D01*
X125316655Y-84912200D01*
X125430729Y-85485689D01*
X125755585Y-85971870D01*
X126070366Y-86182200D01*
X125755585Y-86392530D01*
X125430729Y-86878711D01*
X125316655Y-87452200D01*
X125430729Y-88025689D01*
X125755585Y-88511870D01*
X126070366Y-88722200D01*
X125755585Y-88932530D01*
X125430729Y-89418711D01*
X125316655Y-89992200D01*
X125430729Y-90565689D01*
X125755585Y-91051870D01*
X126070366Y-91262200D01*
X125755585Y-91472530D01*
X125430729Y-91958711D01*
X125316655Y-92532200D01*
X125430729Y-93105689D01*
X125755585Y-93591870D01*
X126070366Y-93802200D01*
X125755585Y-94012530D01*
X125430729Y-94498711D01*
X125316655Y-95072200D01*
X125430729Y-95645689D01*
X125755585Y-96131870D01*
X126070366Y-96342200D01*
X125755585Y-96552530D01*
X125430729Y-97038711D01*
X125316655Y-97612200D01*
X125430729Y-98185689D01*
X125755585Y-98671870D01*
X126070366Y-98882200D01*
X125755585Y-99092530D01*
X125430729Y-99578711D01*
X125316655Y-100152200D01*
X125430729Y-100725689D01*
X125755585Y-101211870D01*
X126070366Y-101422200D01*
X125755585Y-101632530D01*
X125430729Y-102118711D01*
X125316655Y-102692200D01*
X125430729Y-103265689D01*
X125755585Y-103751870D01*
X126070366Y-103962200D01*
X125755585Y-104172530D01*
X125430729Y-104658711D01*
X125316655Y-105232200D01*
X125430729Y-105805689D01*
X125755585Y-106291870D01*
X126070366Y-106502200D01*
X125755585Y-106712530D01*
X125430729Y-107198711D01*
X125316655Y-107772200D01*
X125430729Y-108345689D01*
X125755585Y-108831870D01*
X126070366Y-109042200D01*
X125755585Y-109252530D01*
X125430729Y-109738711D01*
X125316655Y-110312200D01*
X125430729Y-110885689D01*
X125755585Y-111371870D01*
X126070366Y-111582200D01*
X125755585Y-111792530D01*
X125430729Y-112278711D01*
X125316655Y-112852200D01*
X125430729Y-113425689D01*
X125755585Y-113911870D01*
X126065069Y-114118661D01*
X125649268Y-114490164D01*
X125395291Y-115017409D01*
X125392642Y-115033174D01*
X125513783Y-115265200D01*
X126873000Y-115265200D01*
X126873000Y-115245200D01*
X127127000Y-115245200D01*
X127127000Y-115265200D01*
X128486217Y-115265200D01*
X128607358Y-115033174D01*
X128604709Y-115017409D01*
X128350732Y-114490164D01*
X127934931Y-114118661D01*
X128244415Y-113911870D01*
X128569271Y-113425689D01*
X128683345Y-112852200D01*
X128569271Y-112278711D01*
X128244415Y-111792530D01*
X127929634Y-111582200D01*
X128244415Y-111371870D01*
X128569271Y-110885689D01*
X128683345Y-110312200D01*
X128569271Y-109738711D01*
X128244415Y-109252530D01*
X127929634Y-109042200D01*
X128244415Y-108831870D01*
X128569271Y-108345689D01*
X128683345Y-107772200D01*
X128569271Y-107198711D01*
X128244415Y-106712530D01*
X127929634Y-106502200D01*
X128244415Y-106291870D01*
X128569271Y-105805689D01*
X128683345Y-105232200D01*
X128569271Y-104658711D01*
X128244415Y-104172530D01*
X127929634Y-103962200D01*
X128244415Y-103751870D01*
X128569271Y-103265689D01*
X128683345Y-102692200D01*
X128569271Y-102118711D01*
X128244415Y-101632530D01*
X127929634Y-101422200D01*
X128244415Y-101211870D01*
X128569271Y-100725689D01*
X128683345Y-100152200D01*
X128569271Y-99578711D01*
X128244415Y-99092530D01*
X127929634Y-98882200D01*
X128244415Y-98671870D01*
X128569271Y-98185689D01*
X128683345Y-97612200D01*
X128569271Y-97038711D01*
X128244415Y-96552530D01*
X127929634Y-96342200D01*
X128244415Y-96131870D01*
X128569271Y-95645689D01*
X128683345Y-95072200D01*
X128569271Y-94498711D01*
X128244415Y-94012530D01*
X127929634Y-93802200D01*
X128244415Y-93591870D01*
X128569271Y-93105689D01*
X128683345Y-92532200D01*
X128569271Y-91958711D01*
X128244415Y-91472530D01*
X127929634Y-91262200D01*
X128244415Y-91051870D01*
X128569271Y-90565689D01*
X128683345Y-89992200D01*
X128569271Y-89418711D01*
X128244415Y-88932530D01*
X127929634Y-88722200D01*
X128244415Y-88511870D01*
X128569271Y-88025689D01*
X128683345Y-87452200D01*
X128569271Y-86878711D01*
X128244415Y-86392530D01*
X127929634Y-86182200D01*
X128244415Y-85971870D01*
X128569271Y-85485689D01*
X128683345Y-84912200D01*
X128569271Y-84338711D01*
X128244415Y-83852530D01*
X127929634Y-83642200D01*
X128244415Y-83431870D01*
X128569271Y-82945689D01*
X128683345Y-82372200D01*
X128569271Y-81798711D01*
X128244415Y-81312530D01*
X127758234Y-80987674D01*
X127184745Y-80873600D01*
X126815255Y-80873600D01*
X126241766Y-80987674D01*
X125755585Y-81312530D01*
X125430729Y-81798711D01*
X125316655Y-82372200D01*
X124326600Y-82372200D01*
X124326600Y-71717490D01*
X124476394Y-71356745D01*
X124476806Y-70885323D01*
X124296780Y-70449628D01*
X123963725Y-70115991D01*
X123528345Y-69935206D01*
X123056923Y-69934794D01*
X122621228Y-70114820D01*
X122287591Y-70447875D01*
X122106806Y-70883255D01*
X122106394Y-71354677D01*
X110627049Y-71354677D01*
X110560924Y-71247000D01*
X109347000Y-71247000D01*
X109093000Y-71247000D01*
X107879076Y-71247000D01*
X107734816Y-71481913D01*
X104850000Y-71481913D01*
X104850000Y-65855255D01*
X107721400Y-65855255D01*
X107721400Y-66224745D01*
X107835474Y-66798234D01*
X108160330Y-67284415D01*
X108198621Y-67310000D01*
X108160330Y-67335585D01*
X107835474Y-67821766D01*
X107721400Y-68395255D01*
X107721400Y-68764745D01*
X107835474Y-69338234D01*
X108160330Y-69824415D01*
X108228184Y-69869754D01*
X107928046Y-70205680D01*
X107734816Y-70758087D01*
X107879076Y-70993000D01*
X109093000Y-70993000D01*
X109093000Y-70973000D01*
X109347000Y-70973000D01*
X109347000Y-70993000D01*
X110560924Y-70993000D01*
X110705184Y-70758087D01*
X110511954Y-70205680D01*
X110211816Y-69869754D01*
X110279670Y-69824415D01*
X110604526Y-69338234D01*
X110718600Y-68764745D01*
X110718600Y-68395255D01*
X110604526Y-67821766D01*
X110279670Y-67335585D01*
X110241379Y-67310000D01*
X110279670Y-67284415D01*
X110604526Y-66798234D01*
X110718600Y-66224745D01*
X110718600Y-65855255D01*
X125501400Y-65855255D01*
X125501400Y-66224745D01*
X125615474Y-66798234D01*
X125940330Y-67284415D01*
X125978621Y-67310000D01*
X125940330Y-67335585D01*
X125615474Y-67821766D01*
X125501400Y-68395255D01*
X125501400Y-68764745D01*
X125615474Y-69338234D01*
X125940330Y-69824415D01*
X125978621Y-69850000D01*
X125940330Y-69875585D01*
X125615474Y-70361766D01*
X125501400Y-70935255D01*
X125501400Y-71304745D01*
X125615474Y-71878234D01*
X125940330Y-72364415D01*
X126426511Y-72689271D01*
X127000000Y-72803345D01*
X127573489Y-72689271D01*
X128059670Y-72364415D01*
X128384526Y-71878234D01*
X128498600Y-71304745D01*
X128498600Y-70935255D01*
X128384526Y-70361766D01*
X128059670Y-69875585D01*
X128021379Y-69850000D01*
X128059670Y-69824415D01*
X128384526Y-69338234D01*
X128498600Y-68764745D01*
X128498600Y-68395255D01*
X128384526Y-67821766D01*
X128059670Y-67335585D01*
X128021379Y-67310000D01*
X128059670Y-67284415D01*
X128384526Y-66798234D01*
X128498600Y-66224745D01*
X128498600Y-65855255D01*
X128384526Y-65281766D01*
X128059670Y-64795585D01*
X127573489Y-64470729D01*
X127000000Y-64356655D01*
X126426511Y-64470729D01*
X125940330Y-64795585D01*
X125615474Y-65281766D01*
X125501400Y-65855255D01*
X110718600Y-65855255D01*
X110604526Y-65281766D01*
X110279670Y-64795585D01*
X109793489Y-64470729D01*
X109220000Y-64356655D01*
X108646511Y-64470729D01*
X108160330Y-64795585D01*
X107835474Y-65281766D01*
X107721400Y-65855255D01*
X104850000Y-65855255D01*
X104850000Y-58368000D01*
X128830000Y-58368000D01*
X128830000Y-126290000D01*
M02*
