M48
;DRILL file {KiCad 4.0.7-e2-6376~58~ubuntu16.04.1} date Fri Nov  3 14:53:59 2017
;FORMAT={-:-/ absolute / inch / decimal}
FMAT,2
INCH,TZ
T1C0.031
T2C0.040
%
G90
G05
M72
T1
X4.512Y-3.248
X4.512Y-3.848
X4.714Y-3.052
X4.714Y-3.652
X4.854Y-2.8
X4.854Y-3.512
T2
X4.2Y-3.243
X4.2Y-3.343
X4.2Y-3.443
X4.2Y-3.543
X4.2Y-3.643
X4.2Y-3.743
X4.2Y-3.843
X4.2Y-3.943
X4.2Y-4.043
X4.2Y-4.143
X4.2Y-4.243
X4.2Y-4.343
X4.3Y-2.6
X4.3Y-2.7
X4.3Y-2.8
X5.Y-2.6
X5.Y-2.7
X5.Y-2.8
X5.Y-3.243
X5.Y-3.343
X5.Y-3.443
X5.Y-3.543
X5.Y-3.643
X5.Y-3.743
X5.Y-3.843
X5.Y-3.943
X5.Y-4.043
X5.Y-4.143
X5.Y-4.243
X5.Y-4.343
X5.Y-4.443
X5.Y-4.543
X5.Y-4.643
X5.Y-4.743
T0
M30
